<svg width="226" height="48" viewBox="0 0 226 48" fill="none" xmlns="http://www.w3.org/2000/svg">
<path fill-rule="evenodd" clip-rule="evenodd" d="M46.5897 22.7106L46.0728 22.6942C42.8514 22.5916 39.6911 22.5156 36.592 22.466V47.4647H14.592V22.4658C11.4894 22.5153 8.34577 22.5914 5.16121 22.6941L0 22.8606L0 2.61671L51.232 2.61671V10.6737L54.3394 2.61671H65.5466L66.458 0L67.3694 2.61671H78.8558L84.9458 18.2952C85.9303 14.3661 87.8392 10.885 90.7917 8.01527C95.5325 3.40744 102.384 1.6087 110.261 1.6087C119.604 1.6087 127.315 4.33844 132.273 10.4531C132.985 9.49906 133.789 8.59826 134.691 7.7557L134.699 7.74778L134.708 7.7399C139.489 3.31281 146.39 1.6087 154.329 1.6087C162.282 1.6087 169.199 3.30547 173.958 7.74757C175.212 8.90962 176.28 10.1831 177.172 11.555C178.49 9.05 180.529 6.95616 183.274 5.38749C187.85 2.77233 193.446 1.65671 199.723 1.65671C203.478 1.65671 207.281 2.14345 211.123 3.09291C214.983 4.00738 218.542 5.29198 221.767 6.97758L225.908 9.14219L224.028 13.4201C223.185 15.3385 222.27 17.7418 221.287 20.6564C221.242 20.8048 221.197 20.9518 221.151 21.0963C221.89 21.7799 222.552 22.5528 223.117 23.4237C224.479 25.5227 225.075 27.888 225.075 30.3207C225.075 36.0619 222.969 41.0718 218.121 44.1755C213.894 46.9013 208.335 47.9447 202.074 47.9447C198.205 47.9447 193.969 47.4851 189.393 46.6112C184.746 45.7556 180.664 44.5159 177.286 42.7884L174.511 41.3695C174.343 41.5362 174.172 41.7006 173.996 41.8628C169.234 46.2694 162.302 47.9447 154.329 47.9447C146.426 47.9447 139.552 46.2582 134.774 41.8785L134.765 41.87L134.756 41.8615C133.873 41.0441 133.082 40.1707 132.38 39.2461C130.335 41.8929 127.662 43.9275 124.398 45.2665C119.999 47.0713 115.268 47.9447 110.261 47.9447C104.625 47.9447 99.5137 47.0911 95.3221 45.0087L96.2761 47.4647H72.9982L71.8221 44.126C71.2833 42.5965 70.8692 41.4261 70.5752 40.6007H62.3511C61.8173 42.0568 61.4051 43.2128 61.1113 44.076L59.9577 47.4647H37.0426L46.5897 22.7106ZM58.874 35.6007H74.042L74.762 37.4727C74.954 37.9847 75.546 39.6487 76.538 42.4647H88.97L75.434 7.61671H57.77L44.33 42.4647H56.378C56.89 40.9607 57.722 38.6727 58.874 35.6007ZM91.242 34.5045C92.0312 35.9523 93.0428 37.2297 94.2766 38.3367C97.7006 41.4087 103.029 42.9447 110.261 42.9447C114.677 42.9447 118.757 42.1767 122.501 40.6407C124.65 39.7589 126.446 38.4921 127.889 36.8405C128.547 36.0873 129.131 35.2542 129.642 34.3411C129.883 33.9097 130.108 33.4605 130.317 32.9935C130.385 32.8405 130.452 32.6856 130.517 32.5287C129.935 32.2789 129.369 32.0327 128.817 31.79C127.425 31.1775 126.127 30.5875 124.923 30.0201C123.244 29.2283 121.748 28.4805 120.437 27.7767C120.123 28.5946 119.734 29.3196 119.27 29.9517C118.644 30.8034 117.881 31.4864 116.981 32.0007C115.413 32.8647 113.301 33.2967 110.645 33.2967C107.317 33.2967 104.837 32.4967 103.205 30.8967C101.605 29.2647 100.805 27.1687 100.805 24.6087C100.805 22.2407 101.557 20.2567 103.061 18.6567C104.565 17.0247 106.853 16.2087 109.925 16.2087C112.005 16.2087 114.037 16.6407 116.021 17.5047C118.037 18.3687 119.509 19.6967 120.437 21.4887C122.381 20.4922 124.201 19.6208 125.896 18.8746C126.924 18.4218 127.906 18.0151 128.842 17.6544C129.435 17.426 130.009 17.2161 130.565 17.0247C130.269 16.4255 129.949 15.8521 129.603 15.3045C129.022 14.383 128.371 13.5347 127.648 12.7597C123.827 8.65902 118.031 6.6087 110.261 6.6087C103.029 6.6087 97.7006 8.27271 94.2766 11.6007C90.8526 14.9287 89.1406 19.4567 89.1406 25.1847C89.1406 27.2139 89.3579 29.0766 89.7925 30.7728C90.1381 32.1221 90.6213 33.366 91.242 34.5045ZM127.997 23.4128C127.142 23.7881 126.244 24.2013 125.303 24.6535C126.135 25.0636 127.031 25.4903 127.99 25.9337C127.976 25.5431 127.969 25.1494 127.969 24.7527C127.969 24.3022 127.978 23.8555 127.997 23.4128ZM133.201 28.2402C133.523 30.5311 134.177 32.5753 135.165 34.3727C135.95 35.8021 136.946 37.0754 138.153 38.1927C141.609 41.3607 147.001 42.9447 154.329 42.9447C161.753 42.9447 167.177 41.3607 170.601 38.1927C174.025 35.0247 175.737 30.5447 175.737 24.7527C175.737 19.0567 174.009 14.6087 170.553 11.4087C167.129 8.2087 161.721 6.6087 154.329 6.6087C146.969 6.6087 141.561 8.2087 138.105 11.4087C136.937 12.4999 135.969 13.7363 135.199 15.1178C134.174 16.9579 133.503 19.0556 133.184 21.4107C133.041 22.4724 132.969 23.5864 132.969 24.7527C132.969 25.9726 133.046 27.1351 133.201 28.2402ZM162.009 18.4647C160.441 17.0887 157.881 16.4007 154.329 16.4007C150.809 16.4007 148.265 17.0887 146.697 18.4647C145.129 19.8407 144.345 21.9367 144.345 24.7527C144.345 27.6007 145.129 29.7127 146.697 31.0887C148.265 32.4647 150.809 33.1527 154.329 33.1527C157.881 33.1527 160.441 32.4807 162.009 31.1367C163.577 29.7607 164.361 27.6327 164.361 24.7527C164.361 21.9367 163.577 19.8407 162.009 18.4647ZM158.735 27.357C158.889 27.2113 159.361 26.6519 159.361 24.7527C159.361 22.847 158.854 22.3489 158.711 22.2228C158.509 22.0458 157.451 21.4007 154.329 21.4007C151.252 21.4007 150.203 22.0403 149.995 22.2228C149.851 22.3489 149.345 22.847 149.345 24.7527C149.345 26.7113 149.863 27.2147 149.995 27.3306C150.203 27.5131 151.252 28.1527 154.329 28.1527C157.38 28.1527 158.485 27.553 158.735 27.357ZM116.35 24.4695L115.997 23.788C115.649 23.1163 115.102 22.5506 114.051 22.1004L114.038 22.0947L114.024 22.0889C112.644 21.4878 111.29 21.2087 109.925 21.2087C107.695 21.2087 106.975 21.7871 106.737 22.0451L106.721 22.0633L106.704 22.0813C106.143 22.6774 105.805 23.4042 105.805 24.6087C105.805 25.9979 106.186 26.7777 106.735 27.3553C107.106 27.6989 108.104 28.2967 110.645 28.2967C112.791 28.2967 113.963 27.9428 114.533 27.64C114.952 27.392 115.394 26.9613 115.768 25.987L116.35 24.4695ZM182.371 33.5438C182.331 33.6221 182.291 33.6997 182.251 33.7767C182.209 33.8599 182.167 33.9436 182.124 34.0276C181.44 35.3648 180.586 36.8012 179.562 38.3367C180.953 39.0477 182.53 39.6807 184.295 40.2356C186.105 40.8047 188.111 41.2917 190.314 41.6967C194.667 42.5287 198.586 42.9447 202.074 42.9447C207.898 42.9447 212.346 41.9527 215.419 39.9687C218.523 37.9847 220.075 34.7687 220.075 30.3207C220.075 28.8423 219.747 27.5415 219.091 26.4183C218.327 25.1103 217.119 24.0431 215.467 23.2167C215.113 23.036 214.734 22.8658 214.331 22.7059C212.568 22.0072 210.334 21.5073 207.63 21.2063C207.618 21.2049 207.605 21.2036 207.593 21.2022C205.556 20.9772 203.252 20.8647 200.682 20.8647C200.421 20.8647 200.165 20.8627 199.915 20.8586C198.551 20.8365 197.359 20.7542 196.339 20.6116C195.963 20.5591 195.611 20.4984 195.282 20.4295C195.24 20.4206 195.198 20.4116 195.156 20.4025C194.867 20.3391 194.598 20.2691 194.346 20.1927C192.906 19.7127 192.186 19.0887 192.186 18.3207C192.186 17.5527 192.715 16.9767 193.771 16.5927C194.203 16.4224 194.801 16.287 195.566 16.1864C195.606 16.1812 195.646 16.176 195.687 16.1709C195.93 16.1408 196.189 16.1141 196.463 16.0907C197.42 16.0094 198.57 15.9687 199.915 15.9687C200.167 15.9687 200.423 15.9732 200.682 15.9821C203.027 16.0625 205.683 16.5061 208.65 17.3127C209.711 17.5907 210.685 17.8919 211.574 18.2163C213.446 18.9 214.936 19.6869 216.042 20.5767C216.171 20.2567 216.331 19.7767 216.523 19.1367C216.616 18.8605 216.708 18.588 216.8 18.3195C217.121 17.387 217.436 16.5007 217.747 15.6606C218.332 14.0798 218.9 12.6625 219.451 11.4087C218.058 10.681 216.58 10.0315 215.016 9.46015C214.967 9.44227 214.918 9.42447 214.869 9.40675C213.313 8.84519 211.672 8.36051 209.947 7.9527C206.458 7.08871 203.051 6.65671 199.723 6.65671C193.995 6.65671 189.339 7.68071 185.755 9.7287C182.171 11.7767 180.378 14.9607 180.378 19.2807C180.378 20.6227 180.665 21.8026 181.239 22.8204C181.965 24.108 183.15 25.1362 184.794 25.9047C185.18 26.0808 185.597 26.2454 186.044 26.3984C187.843 27.014 190.14 27.4429 192.936 27.6851C192.95 27.6863 192.965 27.6876 192.98 27.6889C194.45 27.8151 196.059 27.8897 197.804 27.9129C198.197 27.9181 198.596 27.9207 199.003 27.9207C200.147 27.9207 201.181 27.9568 202.105 28.0289C202.748 28.0791 203.338 28.1468 203.875 28.2319C204.098 28.2674 204.312 28.3058 204.517 28.3473C204.561 28.3561 204.604 28.3651 204.647 28.3742C206.836 28.8401 207.93 29.6649 207.93 30.8487C207.93 31.3927 207.386 31.9047 206.298 32.3847C205.68 32.6395 204.807 32.8218 203.682 32.9317C203.169 32.9817 202.604 33.0167 201.987 33.0367C201.576 33.05 201.141 33.0567 200.682 33.0567C199.656 33.0567 198.606 33.0077 197.535 32.9097C195.735 32.745 193.872 32.442 191.947 32.0007C190.853 31.7388 189.829 31.4385 188.874 31.0996C187.144 30.4861 185.641 29.7465 184.363 28.8807C184.116 29.5607 183.866 30.2107 183.611 30.8306C183.208 31.81 182.795 32.7144 182.371 33.5438ZM14.592 17.4652C16.2702 17.4386 17.9369 17.4198 19.592 17.4087V42.4647H31.592V17.4087C33.2412 17.4198 34.9079 17.4388 36.592 17.4654C38.1242 17.4897 39.6709 17.5204 41.232 17.5575C42.8825 17.5967 44.5492 17.6431 46.232 17.6967V7.61671L5 7.61671V17.6967C6.67765 17.6426 8.34432 17.5958 10 17.5563C11.5402 17.5196 13.0708 17.4892 14.592 17.4652ZM66.458 15.2007C65.8168 17.0416 64.9282 19.4909 63.7923 22.5485C63.7233 22.7343 63.6533 22.9224 63.5825 23.1127C63.0155 24.6355 62.39 26.3022 61.706 28.1127H71.21C70.526 26.3022 69.9005 24.6355 69.3335 23.1127C69.2627 22.9224 69.1927 22.7343 69.1237 22.5485C67.9878 19.4909 67.0992 17.0416 66.458 15.2007Z" fill="white"/>
<path d="M46.232 17.088C41.208 16.928 36.328 16.832 31.592 16.8V41.856H19.592V16.8C14.824 16.832 9.96 16.928 5 17.088V7.008L46.232 7.008V17.088Z" fill="black"/>
<path d="M76.538 41.856C75.546 39.04 74.954 37.376 74.762 36.864L74.042 34.992H58.874C57.722 38.064 56.89 40.352 56.378 41.856H44.33L57.77 7.008H75.434L88.97 41.856H76.538ZM71.21 27.504C69.034 21.744 67.45 17.44 66.458 14.592C65.466 17.44 63.882 21.744 61.706 27.504H71.21Z" fill="black"/>
<path d="M110.261 42.336C103.029 42.336 97.7006 40.8 94.2766 37.728C90.8526 34.656 89.1406 30.272 89.1406 24.576C89.1406 18.848 90.8526 14.32 94.2766 10.992C97.7006 7.664 103.029 6 110.261 6C120.373 6 127.141 9.472 130.565 16.416C127.685 17.408 124.309 18.896 120.437 20.88C119.509 19.088 118.037 17.76 116.021 16.896C114.037 16.032 112.005 15.6 109.925 15.6C106.853 15.6 104.565 16.416 103.061 18.048C101.557 19.648 100.805 21.632 100.805 24C100.805 26.56 101.605 28.656 103.205 30.288C104.837 31.888 107.317 32.688 110.645 32.688C113.301 32.688 115.413 32.256 116.981 31.392C118.549 30.496 119.701 29.088 120.437 27.168C123.061 28.576 126.421 30.16 130.517 31.92C128.917 35.792 126.245 38.496 122.501 40.032C118.757 41.568 114.677 42.336 110.261 42.336Z" fill="black"/>
<path d="M154.329 42.336C147.001 42.336 141.609 40.752 138.153 37.584C134.697 34.384 132.969 29.904 132.969 24.144C132.969 18.448 134.681 14 138.105 10.8C141.561 7.6 146.969 6 154.329 6C161.721 6 167.129 7.6 170.553 10.8C174.009 14 175.737 18.448 175.737 24.144C175.737 29.936 174.025 34.416 170.601 37.584C167.177 40.752 161.753 42.336 154.329 42.336ZM154.329 32.544C157.881 32.544 160.441 31.872 162.009 30.528C163.577 29.152 164.361 27.024 164.361 24.144C164.361 21.328 163.577 19.232 162.009 17.856C160.441 16.48 157.881 15.792 154.329 15.792C150.809 15.792 148.265 16.48 146.697 17.856C145.129 19.232 144.345 21.328 144.345 24.144C144.345 26.992 145.129 29.104 146.697 30.48C148.265 31.856 150.809 32.544 154.329 32.544Z" fill="black"/>
<path d="M179.562 37.728C180.65 36.096 181.547 34.576 182.251 33.168C182.987 31.76 183.691 30.128 184.363 28.272C186.347 29.616 188.875 30.656 191.947 31.392C195.019 32.096 197.93 32.448 200.682 32.448C203.338 32.448 205.21 32.224 206.298 31.776C207.386 31.296 207.93 30.784 207.93 30.24C207.93 28.288 204.955 27.312 199.003 27.312C192.475 27.312 187.738 26.64 184.794 25.296C181.85 23.92 180.378 21.712 180.378 18.672C180.378 14.352 182.171 11.168 185.755 9.12C189.339 7.072 193.995 6.048 199.723 6.048C203.051 6.048 206.459 6.48 209.947 7.344C213.467 8.176 216.635 9.328 219.451 10.8C218.523 12.912 217.547 15.488 216.523 18.528C216.331 19.168 216.17 19.648 216.042 19.968C214.41 18.656 211.946 17.568 208.65 16.704C205.354 15.808 202.443 15.36 199.915 15.36C196.875 15.36 194.827 15.568 193.771 15.984C192.715 16.368 192.186 16.944 192.186 17.712C192.186 18.48 192.906 19.104 194.346 19.584C195.818 20.032 197.93 20.256 200.682 20.256C207.466 20.256 212.395 21.04 215.467 22.608C218.539 24.144 220.075 26.512 220.075 29.712C220.075 34.16 218.523 37.376 215.419 39.36C212.347 41.344 207.898 42.336 202.074 42.336C198.586 42.336 194.666 41.92 190.314 41.088C185.962 40.288 182.378 39.168 179.562 37.728Z" fill="black"/>
</svg>
